<svg fill="none" height="30" viewBox="0 0 30 30" width="30" xmlns="http://www.w3.org/2000/svg"><path d="m20.8593 10.1426c-.395.4375-.9.7612-1.4625.9375-.0777.019-.159.0178-.2361-.0036-.0772-.0213-.1475-.062-.2045-.1183-.3647-.3782-.5953-.8656-.6562-1.38746-.7966-.04007-1.5822.19861-2.2219.67496-.0603.0278-.1258.0422-.1922.0422-.0663 0-.1319-.0144-.1922-.0422-.7455 1.439-1.2611 2.9859-1.5281 4.5844-1.0406 5.5875-1.5844 8.1281-7.91251 10.4813-.08443.0297-.15807.0839-.21151.1558-.05344.0718-.08425.1579-.08849.2473-.00755.0882.01055.1767.05213.2549s.10487.1427.18225.1857c1.27481.7331 2.72006 1.1178 4.19063 1.1156 3.675 0 7.4062-2.3906 9.8062-6.6375 1.631-2.6897 2.6251-5.7169 2.9063-8.85-.6004-.7189-1.366-1.2818-2.2313-1.6406z" fill="#e2371f"/><path d="m21.7687 8.00533c-.1062.20017-.2285.39142-.3656.57187l-.075.08438-.1312.08437c-.169.12363-.3719.19235-.5813.19688-.0777.01128-.1566.01128-.2344 0-.1534-.04583-.2926-.1302-.4042-.24508s-.1919-.25644-.2333-.41117c-.0195-.06787-.0237-.13923-.0124-.20893.0114-.0697.038-.13602.0781-.1942.0707-.11655.1125-.24835.1218-.38437-.9375-.2625-3.0187-.51563-4.5093 2.07187-.0536.09057-.0744.19678-.0591.30087.0154.1041.066.19978.1434.27098.0529.0476.1177.08.1875.0938.0603.0277.1259.0421.1922.0421.0664 0 .132-.0144.1922-.0421.6397-.47642 1.4253-.71509 2.2219-.67502.061.52182.2915 1.00932.6562 1.38752.057.0562.1274.0969.2045.1183.0771.0213.1584.0225.2362.0036.5625-.1763 1.0674-.5 1.4625-.9375.8692.3694 1.6351.9455 2.2312 1.6781.0462.0452.0871.0955.1219.15.0458.0521.102.094.1649.123.063.0291.1314.0447.2007.0457.0495.0099.1005.0099.15 0 .0916-.0294.1717-.0869.2289-.1643.0571-.0773.0886-.1707.0899-.2669.085-.7814-.0928-1.5688-.5054-2.23772-.4126-.66896-1.0364-1.18131-1.7728-1.45605z" fill="#98b71e"/><path d="m22.5562 3.27139c-.0228-.11671-.0882-.22076-.1835-.29183-.0954-.07107-.2138-.10407-.3321-.09254l-1.9688.25312c-.0661.00957-.1294.03287-.1859.06839s-.105.08248-.1422.13786c-.0397.05836-.0655.12508-.0752.19499-.0098.06992-.0033.14114.0189.20814.3202 1.22293.4029 2.49591.2438 3.75-.0228.1108-.0674.21597-.1313.30937-.04.05818-.0666.1245-.078.19421-.0113.0697-.0071.14105.0124.20892.0414.15473.1217.29629.2333.41117s.2507.19926.4042.24508c.0777.01128.1567.01128.2344 0 .2093-.00453.4122-.07325.5812-.19688l.1313-.08437.075-.08438c.1371-.18045.2594-.3717.3656-.57187.754-1.42901 1.0331-3.06103.7969-4.65938z" fill="#809336"/></svg>