<svg fill="none" height="70" viewBox="0 0 75 70" width="75" xmlns="http://www.w3.org/2000/svg"><g fill="currentColor"><path d="m70.5751 42.2124h-66.15022c-2.40027 0-4.42488-1.9738-4.42488-4.4792 0-2.4298 1.94987-4.4793 4.42488-4.4793h66.15022c2.4003 0 4.4249 1.9738 4.4249 4.4793 0 2.4292-1.9499 4.4792-4.4249 4.4792zm-66.15022-7.2124c-1.49987 0-2.70001 1.2149-2.70001 2.7332s1.20013 2.7332 2.70001 2.7332h66.15022c1.4999 0 2.7-1.2149 2.7-2.7332s-1.2001-2.7332-2.7-2.7332z"/><path d="m53.1755 65.293h-31.3501c-.0748 0-.2249 0-.2997-.0758-17.02511-6.1501-17.92511-23.6877-17.92511-23.8395 0-.4555.3751-.9109.82503-.9109.44992 0 .89984.3797.89984.8352 0 .6831.82503 16.3991 16.65004 22.2451h31.0501c15.7501-5.7699 16.5751-21.5618 16.6501-22.2451 0-.4555.4499-.8352.8998-.8352.45 0 .8251.4554.8251.9109 0 .152-.8999 17.6899-17.9251 23.8395-.0748 0-.2244.0763-.2998.0763z"/><path d="m49.9501 70h-24.9001c-1.4252 0-2.7-.6831-3.525-1.8222-.8251-1.1386-1.05-2.5812-.6001-3.9481.0748-.152.0748-.2277.0748-.2277.225-.4555.6749-.6075 1.1248-.4555s.6001.6832.4499 1.1386v.0758c-.2998.8351-.1501 1.6702.3751 2.3534.5253.6832 1.275 1.1386 2.1748 1.1386h24.825c.8999 0 1.65-.3797 2.1748-1.1386.5252-.6832.6001-1.5183.3751-2.3534v-.0758c-.1502-.4554 0-.9109.4499-1.1386.4499-.152.8999 0 1.1248.4555 0 0 0 .0757.0748.2277.4499 1.3663.225 2.7332-.6001 3.9481-.8982 1.1391-2.2485 1.8222-3.5982 1.8222z"/><path d="m12.7496 31.2044c-.3751 0-.6749-.2278-.8251-.6075-.2997-.9109-.4499-1.898-.4499-2.9609 0-.4555.3751-.8352.825-.8352.45 0 .8251.3797.8251.8352 0 .8351.1501 1.5946.3751 2.3534.1501.4555-.0748.9109-.5253 1.1386 0 .0763-.1496.0763-.2249.0763z"/><path d="m12.2996 28.5462c-.4499 0-.825-.3797-.825-.8352 0-4.9347 3.975-8.8829 8.775-8.8829.7503 0 1.5753.0758 2.3249.3035.4499.152.7502.6074.6001 1.0629-.1502.4554-.6001.7594-1.05.6074-.6001-.152-1.2001-.2277-1.875-.2277-3.9001 0-7.0502 3.1887-7.0502 7.1368 0 .456-.3745.8352-.8998.8352z"/><path d="m12.3003 28.5465h-5.55018c-2.47501 0-4.57502-1.5183-5.40002-3.8719-.674881-2.05-.22496-4.1758 1.12479-5.6941-1.649469-1.8981-1.724336-4.4793-.82449-6.3016.82503-1.746 2.62527-3.34068 5.02502-3.34068-.29978-2.05004.60006-4.02388 2.32487-5.31442 1.72491-1.2906 3.90011-1.44265 5.77511-.60744.9752-2.35345 3.1501-3.41636 5.1752-3.41636h.0748c2.0251 0 4.1999 1.06288 5.1752 3.41636 2.5498-1.13861 5.2498-.15199 6.675 1.67029.2249.22772 1.2001 1.2906 1.4251 2.73319.0748.45545-.2249.9109-.6749.98715-.4499.07573-.8998-.22772-.9751-.68317-.225-1.06289-.9752-1.82227-.9752-1.82227l-.0748-.15199c-1.1248-1.44266-3.4503-2.20147-5.4-.75944l-1.05.75944-.2998-1.29061c-.5252-2.35345-2.4002-3.11294-3.9001-3.11294s-3.3749.83517-3.8249 3.18872l-.2998 1.36633-1.1253-.91036c-1.7249-1.29061-3.5999-.83517-4.72513 0-1.12479.83517-2.10001 2.50543-1.42514 4.5556l.29977.8352-1.04998.3797h-.29977c-2.25014-.4555-3.75001.9109-4.35001 2.2778-.60007 1.3663-.67489 3.4163 1.20012 4.859l.89984.6069-.89984.6832c-1.65001 1.2906-1.80014 3.1129-1.34974 4.4793.44992 1.2906 1.65001 2.7332 3.75002 2.7332h5.55016c.4499 0 .825.3797.825.8351.0743.5317-.3003.9109-.8255.9109z"/><path d="m9.22451 12.6027c-.22496 0-.44992-.0758-.60007-.2278l-1.42514-1.4426c-.37511-.3035-.37511-.9109 0-1.21489.29977-.37972.89984-.37972 1.20013 0l1.42513 1.44269c.37514.3034.37514.9109 0 1.2148-.15014.0758-.37511.2278-.60007.2278z"/><path d="m15.6749 8.6546c-.2997 0-.6-.152-.7502-.45545-1.05-1.82227-.5252-3.64413-.5252-3.72032.1506-.45545.6005-.75891 1.0505-.60745.4499.152.6748.60745.6 1.06288 0 .07574-.2997 1.21488.3751 2.35345.225.37972.0749.91091-.2997 1.21488-.1502.07626-.3003.15199-.4505.15199z"/><path d="m23.9997 8.8827c-.1502 0-.2998-.07573-.4499-.152-.3751-.22772-.5253-.83517-.225-1.21487.825-1.29061.5253-2.65755.5253-2.65755-.1502-.45545.1501-.9109.6-1.06288.4499-.15199.8999.15199 1.05.60745 0 .07573.5253 2.12581-.7502 4.02387-.1502.30398-.4499.45598-.7502.45598z"/><path d="m70.6502 34.7723c-.45 0-.8251-.3797-.8251-.8351-.825-10.1735-6.225-17.4621-6.225-17.5381-8.9252-11.54025-17.0251-12.29974-20.1001-12.07143l14.4001 18.75273c1.05 1.4427.9751 3.2644-.2998 4.5556-1.2749 1.2906-3.0751 1.3664-4.5003.2278l-18.45-14.653c-.225 2.7332.2997 9.1868 7.725 16.7029.2998.3034.2998.9109 0 1.2148-.2998.3035-.8999.3035-1.2001 0-10.4998-10.6288-8.0253-19.436-7.9499-19.8156.0748-.3035.2997-.4555.6-.6075.2998-.0757.6001 0 .8251.152l19.575 15.64c.8251.6831 1.7249.3797 2.2502-.152.4499-.4555.825-1.3664.1501-2.2778l-15.375-19.89163c-.1502-.22772-.225-.53171-.1502-.83517s.2998-.45545.6001-.53171c.4499-.15199 11.1752-3.112944 23.2501 12.52691.2249.3034 5.7751 7.7442 6.6001 18.449-.0005.456-.3751.912-.9003.9877z"/><path d="m45.3003 21.4853c-.3751 0-.7502-.3035-.825-.6832-.0748-.4554.225-.9109.6749-.9871.1501 0 3.6751-.7595 4.7251-4.7832.1502-.4555.6001-.7595 1.05-.6075s.7502.6075.6001 1.0629c-1.3497 5.1624-5.85 6.0739-6.0749 6.0739 0-.0757-.0748-.0757-.1501-.0757z"/><path d="m40.1246 17.3098c-.3752 0-.7503-.3034-.8251-.7594-.0748-.4554.225-.9109.6749-.9871.1502 0 4.0498-.7595 5.85-5.99762.1502-.45545.6749-.68318 1.1248-.53171.4499.15199.6749.68317.5253 1.13863-2.1748 6.2259-6.9748 7.1368-7.2003 7.1368-.0748.0005-.0748.0005-.1496.0005z"/><path d="m50.1753 25.3575c-.3751 0-.7502-.3035-.825-.6832-.0748-.4554.225-.9109.6749-1.0629.1501 0 2.925-.6831 3.6751-3.7203.1502-.4554.6001-.7594 1.05-.6074s.7502.6074.6001 1.0629c-1.05 4.1758-4.8 5.011-4.9502 5.011h-.2249z"/><path d="m23.5499 34.9999c-.3751 0-.7502-.2277-.825-.6074-1.05-3.8719-.6749-7.82 1.1248-10.9329 1.4251-2.5055 3.525-4.2515 6.225-4.9347.4499-.152.8999.152 1.05.6074.1502.4555-.1501.9109-.6001 1.0629-2.1747.6075-3.975 2.0501-5.1751 4.0995-1.4999 2.7332-1.875 6.2259-.9752 9.6423.1502.4554-.1501.9109-.6 1.0629h-.2245z"/></g></svg>