<svg fill="none" height="110" viewBox="0 0 110 110" width="110" xmlns="http://www.w3.org/2000/svg"><g clip-rule="evenodd" fill="currentColor" fill-rule="evenodd"><path d="m55 107.25c28.8569 0 52.25-23.3931 52.25-52.25s-23.3931-52.25-52.25-52.25-52.25 23.3931-52.25 52.25 23.3931 52.25 52.25 52.25zm0 2.75c30.3757 0 55-24.6243 55-55s-24.6243-55-55-55-55 24.6243-55 55 24.6243 55 55 55z"/><path d="m29.4345 52.3982c.6009-.4643 1.4644-.3536 1.9288.2473l17.1559 22.2018c.4643.6009.3536 1.4645-.2473 1.9288s-1.4644.3536-1.9287-.2473l-17.156-22.2018c-.4643-.6009-.3536-1.4644.2473-1.9288z"/><path d="m80.5708 33.228c.5986.4672.7051 1.3313.2379 1.9299l-32.2936 41.3762c-.4672.5986-1.3313.7051-1.9299.2379-.5987-.4672-.7052-1.3313-.2379-1.9299l32.2935-41.3762c.4673-.5986 1.3313-.7051 1.93-.2379z"/></g></svg>