<svg fill="none" height="16" viewBox="0 0 16 16" width="16" xmlns="http://www.w3.org/2000/svg" xmlns:xlink="http://www.w3.org/1999/xlink"><clipPath id="a"><path d="m0 0h16v16h-16z"/></clipPath><g clip-path="url(#a)"><path d="m8 16s6-5.686 6-10c0-1.5913-.6321-3.11742-1.7574-4.24264-1.1252-1.125219-2.6513-1.75736-4.2426-1.75736s-3.11742.632141-4.24264 1.75736c-1.12522 1.12522-1.75736 2.65134-1.75736 4.24264 0 4.314 6 10 6 10zm0-7c-.79565 0-1.55871-.31607-2.12132-.87868s-.87868-1.32567-.87868-2.12132.31607-1.55871.87868-2.12132 1.32567-.87868 2.12132-.87868 1.55871.31607 2.1213.87868c.5626.56261.8787 1.32567.8787 2.12132s-.3161 1.55871-.8787 2.12132c-.56259.56261-1.32565.87868-2.1213.87868z" fill="currentColor"/></g></svg>