<svg fill="none" height="21" viewBox="0 0 21 21" width="21" xmlns="http://www.w3.org/2000/svg"><path d="m12.1668 15.4998c.221 0 .433-.0878.5893-.2441s.2441-.3682.2441-.5892v-1.6667c0-.221-.0878-.433-.2441-.5893-.1563-.1562-.3683-.244-.5893-.244s-.433.0878-.5892.244c-.1563.1563-.2441.3683-.2441.5893v1.6667c0 .221.0878.4329.2441.5892.1562.1563.3682.2441.5892.2441zm-3.33331 0c.22101 0 .43297-.0878.58925-.2441s.24408-.3682.24408-.5892v-1.6667c0-.221-.0878-.433-.24408-.5893-.15628-.1562-.36824-.244-.58925-.244-.22102 0-.43298.0878-.58926.244-.15628.1563-.24408.3683-.24408.5893v1.6667c0 .221.0878.4329.24408.5892s.36824.2441.58926.2441zm7.50001-10h-1.15l-1.4417-2.875c-.044-.10579-.1094-.20136-.1921-.28073-.0826-.07937-.1808-.14084-.2883-.18057s-.222-.05686-.3364-.05033c-.1144.00654-.2262.0366-.3285.0883-.1023.05171-.1928.12395-.2658.21222-.0731.08826-.1272.19065-.1589.30077-.0318.11012-.0404.22559-.0255.33921s.0531.22294.1122.32113l1.0583 2.125h-5.63331l1.05833-2.125c.08089-.19425.0853-.4119.01235-.60926-.07295-.19737-.21786-.35983-.40563-.45477-.18778-.09494-.40452-.11534-.60671-.05709s-.37486.19083-.48334.37112l-1.44167 2.875h-1.15c-.58901.00896-1.15594.22562-1.60079.61178-.44486.38615-.73907.91699-.83074 1.49889-.09166.5819.02509 1.17748.32968 1.6817.3046.50422.77745.88473 1.33518 1.07433l.61667 6.2166c.06218.6188.35279 1.1923.81506 1.6083s1.06302.6448 1.68494.6417h6.98338c.6219.0031 1.2226-.2257 1.6849-.6417s.7529-.9895.8151-1.6083l.6166-6.2166c.559-.1902 1.0326-.57206 1.3369-1.07797.3044-.5059.4199-1.1032.3261-1.68611s-.3909-1.1138-.8387-1.49864c-.4477-.38485-1.0172-.5988-1.6076-.60398zm-1.5083 10.9167c-.0208.2062-.1176.3974-.2717.5361-.1541.1386-.3544.2149-.5617.2139h-6.98331c-.20731.001-.40756-.0753-.56165-.2139-.15409-.1387-.25096-.3299-.27169-.5361l-.59166-5.9167h9.83331zm1.5083-7.58337h-11.66668c-.22101 0-.43298-.08779-.58926-.24408-.15628-.15628-.24407-.36824-.24407-.58925s.08779-.43298.24407-.58926.36825-.24407.58926-.24407h11.66668c.221 0 .433.08779.5892.24407.1563.15628.2441.36825.2441.58926s-.0878.43297-.2441.58925c-.1562.15629-.3682.24408-.5892.24408z" fill="currentColor"/></svg>