<svg fill="none" height="20" viewBox="0 0 20 20" width="20" xmlns="http://www.w3.org/2000/svg"><path clip-rule="evenodd" d="m7.3481 10.7377c.4074-.4074.4074-1.06796 0-1.47536l-7.04255-7.04255c-.4074-.4074-.4074-1.06793-.000001-1.475326l.438915-.438914c.407396-.4074 1.067926-.407399 1.475326 0l7.04255 7.04255c.4074.4074 1.06796.4074 1.47536 0l7.0425-7.04255c.4074-.4074 1.0679-.4074 1.4753-.000001l.439.438915c.4074.407396.4073 1.067926 0 1.475326l-7.0426 7.04255c-.4074.4074-.4074 1.06796 0 1.47536l7.0426 7.0425c.4074.4074.4074 1.0679 0 1.4753l-.439.439c-.4074.4074-1.0679.4073-1.4753 0l-7.0425-7.0426c-.4074-.4074-1.06796-.4074-1.47536 0l-7.04255 7.0426c-.4074.4074-1.06793.4074-1.475326 0l-.438914-.439c-.4074-.4074-.407399-1.0679 0-1.4753z" fill="currentColor" fill-rule="evenodd"/></svg>