<svg fill="none" height="16" viewBox="0 0 16 16" width="16" xmlns="http://www.w3.org/2000/svg" xmlns:xlink="http://www.w3.org/1999/xlink"><clipPath id="a"><path d="m0 0h16v16h-16z"/></clipPath><g clip-path="url(#a)" fill="currentColor"><path d="m9.20674 5.79688c-.20697 0-.37471.16774-.37471.3747v7.08192c0 .2069.16774.3748.37471.3748s.37471-.1679.37471-.3748v-7.08192c0-.20696-.16774-.3747-.37471-.3747z"/><path d="m6.78584 5.79688c-.20697 0-.37471.16774-.37471.3747v7.08192c0 .2069.16774.3748.37471.3748s.37471-.1679.37471-.3748v-7.08192c0-.20696-.16774-.3747-.37471-.3747z"/><path d="m2.56325 4.76335v9.23195c0 .5457.20009 1.0581.54962 1.4258.34792.3687.83211.578 1.33884.5789h7.08959c.5068-.0009.991-.2102 1.3388-.5789.3495-.3677.5496-.8801.5496-1.4258v-9.23195c.6948-.18442 1.1451-.85567 1.0521-1.56864-.0931-.71282-.7003-1.24604-1.4193-1.24619h-1.9185v-.46838c.0022-.39388-.1535-.772101-.4324-1.05035-.2788-.278102-.6576-.4329609-1.05148-.42974077h-3.32727c-.39388-.00322013-.77268.15163877-1.05152.42974077-.27883.278249-.43457.65647-.43237 1.05035v.46838h-1.91847c-.71897.00015-1.32625.53337-1.41934 1.24619-.09295.71297.35728 1.38422 1.0521 1.56864zm8.97805 10.48725h-7.08959c-.64066 0-1.13905-.5504-1.13905-1.2553v-9.19901h9.36764v9.19901c0 .7049-.4984 1.2553-1.139 1.2553zm-5.94293-13.77046c-.00249-.19511.07421-.3829.21267-.520638.13832-.137734.32655-.213407.52181-.210041h3.32727c.19526-.003366.38348.072307.52178.210041.1385.137588.2152.325528.2127.520638v.46838h-4.79623zm-2.66788 1.21779h10.13201c.3725 0 .6745.30196.6745.67447s-.302.67447-.6745.67447h-10.13201c-.37251 0-.67447-.30196-.67447-.67447s.30196-.67447.67447-.67447z"/></g></svg>