<svg fill="none" height="70" viewBox="0 0 70 70" width="70" xmlns="http://www.w3.org/2000/svg"><g fill="currentColor"><path d="m64.6814.372539c-.1827-.2961498-.541-.4366013-.8784-.3446068l-19.1827 5.2175278c-.0131.00381-.0225.0147-.0351.01905-.079.02722-.153.06696-.2189.11759-.0236.01361-.0466.02831-.0691.0441-.0829.07403-.1481.1644-.1926.26565l-.0049.01198-.0006.00054v.00109c-.102.24389-1.5542 3.99307 1.5663 10.68364-5.1111 1.8249-13.7246 6.9117-14.5211 20.566-.7418-.0114-1.4834-.0228-2.2395-.0228-8.0402 0-15.7417.6892-21.12793 1.8906-5.23346 1.1688-7.77687 2.6436-7.77687 4.5087 0 1.6773 2.05956 3.035 6.2961 4.1493.06584.0169.13387.0256.2019.0256.39502 0 .72859-.2907.77961-.6794.05103-.3887-.1964-.7551-.57826-.8552-4.04665-1.0643-5.12643-2.1602-5.12643-2.6403 0-.5656 1.37926-1.8308 6.54849-2.9855 5.27789-1.1775 12.85289-1.8525 20.78239-1.8525.7396 0 1.4649.0114 2.1902.0228-.0055.3996.0011.8117.0082 1.2249-3.4893.7812-4.8071 2.7127-4.8647 2.7993h-.0006c-.1569.2395-.169.5449-.0324.7959.1372.2515.4017.4083.6891.4088.2617.0006.5064-.1279.6546-.3418.9299-1.0763 2.2022-1.8052 3.6067-2.0677.039.6767.0889 1.3648.1635 2.0769.0417.3968.3791.6989.7818.6995.0269 0 .0543-.0016.0818-.0038.4317-.0447.7461-.4285.7011-.8574-1.9312-18.47 8.6685-24.0376 13.9172-25.6528.101-.006.1992-.0316.2903-.0752.0093-.0049.0148-.0136.0236-.0185.6056-.1774 1.2201-.3239 1.8406-.4382.2573.8046.4921 1.6163.7104 2.434-.2523.2216-.6029.5493-1.0155.9826-.0587.0468-.1103.1013-.1531.1623-2.4195 2.6044-6.6126 8.6194-5.4303 18.0867.0038.0174.0011.0359.006.0528v.0005c.2063 1.6114.5404 3.2037.9996 4.7629.0971.3337.4049.5629.7549.5635.2475-.0006.4801-.116.6288-.3119.1487-.196.1953-.4503.1273-.686-.3495-1.1927-.6255-2.4057-.8268-3.6317 8.3853 1.1574 11.478 2.9147 11.478 3.8494 0 .9249-2.3416 2.0464-6.5491 2.9767v-.0006c.4878-.5672.8444-1.233 1.0452-1.9516.1147-.4154-.1317-.8449-.5508-.9592-.4187-.1138-.8515.1306-.9662.546-.5925 2.1405-3.0712 2.9577-3.5832 3.1052-4.2189.6075-8.4714.9625-12.7332 1.0632-3.8223-.5765-4.828-2.0774-4.8648-2.134-.2134-.3723-.689-.5052-1.0659-.2972-.3775.2079-.5158.6783-.3095 1.055.3863.5923.9124 1.0834 1.5323 1.4296-4.2689-.0218-8.4874-.2373-12.2416-.6304-.9464-.0991-1.8593-.2085-2.7388-.3283-.4296-.0566-.824.2423-.8827.668s.2403.8188.6693.8792c.8937.1214 1.8226.2325 2.7871.3332 4.3594.4382 8.7392.6532 13.1217.644 1.2344 0 2.5347-.0207 3.869-.0604.0263.0027.0527.0054.0784.0054.0187 0 .0357-.0082.0544-.0098h-.0006c4.2799-.117 8.5499-.4687 12.7908-1.0534.006 0 .0115.0033.0176.0033v-.0006c.0614 0 .1229-.007.1827-.0212.0126-.0027.0532-.0136.1064-.0278 6.6072-.988 11.8044-2.6615 11.8044-5.2348 0-3.0383-7.0735-4.6366-13.2714-5.4564-.8158-7.9329 2.3497-13.0611 4.5499-15.5976.8564 1.0947 1.5763 1.6424 2.1786 1.6424.0143 0 .0275-.0044.0417-.0049h.0006l.0016-.0006v.0006c.0637-.0017.1279-.0093.1904-.0234.0274-.0109.0549-.024.0807-.0381.0225-.0082.0471-.0055.0691-.0158l17.9074-8.5889c.3149-.1508.4916-.4905.4334-.8324-.8427-4.97684-2.6455-9.74575-5.3091-14.043748zm-17.5071 15.534961c-1.2174-2.3436-1.8757-4.9332-1.9235-7.56973 1.2525 2.33273 2.3229 4.75693 3.2024 7.25183-.3473.0729-.784.1791-1.2789.3179zm4.7083 6.0852c-.1663-.8008-.3566-1.595-.5591-2.3849-.0027-.0131-.0066-.0251-.0104-.0382h.0005c-1.1729-4.5756-2.9532-8.9759-5.2942-13.08599l17.6265-4.79386c2.2916 3.82932 3.8799 8.03143 4.6919 12.41165z"/><path d="m33.2149 45.1384c-.1657.3979.0247.8541.4257 1.0191 1.6239.6239 3.3456.9576 5.0864.987 1.6345.0038 3.2507-.3408 4.7385-1.0115.3868-.1944.5421-.6625.3473-1.0463-.1947-.3844-.666-.5395-1.0539-.3474-1.2701.5559-2.6433.8439-4.0319.8444-1.534-.0327-3.051-.3261-4.4851-.8683-.1926-.079-.4093-.079-.6019.0005-.1926.079-.3456.2314-.4252.4225z"/><path d="m28.9045 69.9992c15.3273 0 26.1266-7.9324 28.8878-21.2197.0878-.4224-.186-.8351-.6117-.9222-.4252-.0871-.8416.1846-.9294.6065-2.5978 12.5079-12.821 19.9751-27.3457 19.9751-14.5246 0-24.74869-7.4669-27.34702-19.9737v-.0006c-.08779-.4219-.50419-.6935-.929391-.6064-.425733.0871-.6995136.4997-.6117322.9222 2.7601232 13.2875 13.5594432 21.2196 28.8878432 21.2196z"/><path d="m41.5914 21.3758c-3.2753 3.3948-5.2373 7.8284-5.5385 12.5183-.0148.2063.0543.4099.1909.5662.1372.1562.3308.252.5393.2662.0187.0011.0368.0016.0554.0016l-.0005.0005c.4131-.0005.7554-.3179.784-.7267.3006-4.2909 2.0826-8.3477 5.0458-11.4873.3154-.295.3308-.7882.0345-1.1018-.2968-.3141-.7938-.3305-1.1109-.037z"/><path d="m41.5911 27.7493c-.1936-.0778-.4098-.0757-.6018.0054-.1921.0812-.3435.2341-.4214.4263-1.2075 3.2037-1.7156 6.6247-1.4906 10.038.0362.4023.3753.7105.7824.711.0236 0 .0471-.0006.0713-.0033.4323-.0386.7516-.4175.7132-.8465-.1948-3.1668.276-6.3389 1.382-9.3157.0779-.1916.0763-.4066-.0055-.5972-.0817-.1905-.2359-.3408-.4296-.4181z"/><path d="m42.8498 25.3827c.1865.0915.4027.1062.6002.0398.1975-.0665.3605-.208.4526-.3936.8735-1.6696 2.1134-3.1232 3.6287-4.2539.361-.2389.4587-.7235.2173-1.0822-.2414-.3582-.7297-.4551-1.0907-.2156-1.7485 1.2793-3.1745 2.9435-4.1658 4.8615-.0921.1856-.1064.3995-.0389.5955.0669.196.2096.3571.3966.4486z"/></g></svg>