<svg fill="none" height="70" viewBox="0 0 75 70" width="75" xmlns="http://www.w3.org/2000/svg"><g fill="currentColor"><path d="m33.8793 36.248c-.5363 0-.8942-.3696-.8942-.925v-1.5719c0-.5547.3573-.9249.8942-.9249.5362 0 .8941.3696.8941.9249v1.5719c-.0006.5554-.447.925-.8941.925z"/><path d="m45.5006 40.3164c-.5362 0-.8942-.3696-.8942-.925v-2.6813c0-.5547.3573-.9249.8942-.9249.5363 0 .8942.3696.8942.9249v2.6813c-.0006.5547-.4477.925-.8942.925z"/><path d="m41.12 52.708c-.5363 0-.8942-.3696-.8942-.925v-2.1266c0-.5547.3573-.925.8942-.925.5362 0 .8941.3696.8941.925v2.1266c0 .5554-.4471.925-.8941.925z"/><path d="m35.3989 56.5918c-.5362 0-.8941-.3696-.8941-.925v-2.1266c0-.5547.3573-.925.8941-.925.5363 0 .8942.3696.8942.925v2.1266c0 .5554-.3579.925-.8942.925z"/><path d="m57.2997 30.515h-8.2239c-.5363 0-.8942-.3696-.8942-.925 0-.5547.3573-.925.8942-.925l8.2239.0007c.5363 0 .8942.3696.8942.9249 0 .5541-.3579.9244-.8942.9244z"/><path d="m45.6789 20.9906h-8.224c-.5362 0-.8941-.3696-.8941-.925 0-.5547.3573-.925.8941-.925h8.224c.5362 0 .8942.3696.8942.925 0 .5547-.4471.925-.8942.925z"/><path d="m19.5767 34.0286h-4.1123c-.5362 0-.8941-.3696-.8941-.9249 0-.5547.3572-.925.8941-.925h4.1123c.5363 0 .8942.3696.8942.925 0 .5553-.4471.9249-.8942.9249z"/><path d="m23.6891 25.8919h-11.1738c-.5363 0-.8942-.3696-.8942-.9249 0-.5548.3573-.925.8942-.925h11.1738c.5363 0 .8942.3696.8942.925-.0006.5547-.4471.9249-.8942.9249z"/><path d="m71.9599 9.98694v-3.42122h2.1455c.5363 0 .8942-.3696.8942-.92496v-4.715797c0-.55472-.3573-.924963-.8942-.924963h-73.211234c-.536251 0-.894166.369599-.894166.924963v4.715797c0 .55472.357293.92496.894166.92496h2.145544v3.42122c0 2.86636 2.05583 5.27116 4.73773 5.73296v46.6973h-2.05584c-3.12901 0-5.6317941 2.5891-5.6317941 5.8258v.832c0 .5548.3572931.925.8941661.925h73.121828c.5363 0 .8942-.3696.8942-.925v-.832c0-3.2368-2.503-5.8258-5.6318-5.8258h-2.0558v-46.6973c2.592-.4625 4.6478-2.8664 4.6478-5.73296zm-70.17198-8.22981h71.33408v2.8664h-71.33408zm3.03913 8.22981v-3.42122h65.34485v3.42122c0 2.21946-1.6986 3.97586-3.8435 3.97586h-57.65721c-2.14507 0-3.8435-1.7571-3.8435-3.97586zm41.38805 42.62856v.0923c0 5.2711-3.8435 9.5244-8.5819 9.5244-4.4695 0-8.1347-3.2368-8.7601-7.5829v-.0922c-.0892-.1851 0-.8321 0-1.2946v-.7398c0-1.9422 2.4137-7.4899 3.9333-10.9111.5363 1.2023 1.2515 2.7742 1.9666 4.5312.179.4625.6261.7398 1.0725.7398.4471 0 .8942-.2773 1.0725-.7398 1.2515-3.3289 2.8609-7.0276 3.8435-9.0619 2.0559 4.3461 5.4529 12.2985 5.4529 15.0727v.3697c.0006-.0007.0006.0922.0006.0922zm-2.9499 9.6166c2.8608-2.0343 4.7377-5.5485 4.7377-9.5244v-.1851-.3696c0-4.254-6.1681-17.0145-6.4361-17.5693-.179-.2774-.4471-.4625-.8044-.4625s-.6261.1851-.8044.4625c0 .0922-2.324 4.8086-4.1123 9.4321-1.1623-2.5892-2.1455-4.8086-2.2348-4.8086-.1789-.2774-.4471-.5547-.8043-.5547-.3573 0-.6261.1851-.8044.4625-.5363 1.0172-4.9167 10.172-4.9167 13.4079v.5547c0 .6476-.0892 1.2946 0 1.7571.4471 3.0515 2.0558 5.6407 4.4696 7.3048h-12.9622v-9.6172c0-11.2813 8.492-20.4358 18.8615-20.4358s18.8615 9.1547 18.8615 20.4358v9.7095zm14.8384-10.5416h2.7716c.5363 0 .8942-.3696.8942-.9249 0-.5548-.3573-.925-.8942-.925h-2.7709-.0892c-1.2514-11.0962-9.9224-19.6036-20.4705-19.6036-10.5479 0-19.3085 8.5993-20.4706 19.6961-.0892-.0923-.2681-.0923-.4471-.0923h-4.1123c-.5362 0-.8941.3696-.8941.925 0 .5547.3572.925.8941.925h4.1123c.0892 0 .179 0 .2682-.0923v.925l-.0013 9.7082h-7.33038l.00062-46.4199h55.86936v46.4199h-7.3303v-9.7095-.8321zm15.018 16.3674h-71.334c.08916-2.1267 1.78766-3.8838 3.84349-3.8838h63.64641c2.0565 0 3.7549 1.7571 3.8441 3.8838z"/><path d="m65.0764 41.3341c0-.5547-.3573-.9249-.8941-.9249h-4.1124c-.5362 0-.8941.3696-.8941.9249 0 .5548.3573.925.8941.925h4.1124c.5362-.0006.8941-.3702.8941-.925z"/></g></svg>