<svg fill="none" height="32" viewBox="0 0 181 32" width="181" xmlns="http://www.w3.org/2000/svg"><g fill="currentColor"><path d="m27.8154 21.8118c0 1.5767-.4336 3.0793-1.3008 4.5078-.8671 1.4286-2.1545 2.5808-3.8621 3.4568-1.6943.8625-3.722 1.2937-6.0833 1.2937l-1.5009-.0606h-15.0683v-29.99876h25.5541v6.24637h-15.5286v5.43779h5.363l1.4008-.0607c1.801 0 3.3818.2494 4.7426.748 1.3741.4986 2.5281 1.1859 3.4619 2.0619.9339.8625 1.6342 1.8463 2.1012 2.9514.4802 1.105.7204 2.2438.7204 3.4163zm-9.5053-.4448c0-.6873-.3068-1.2937-.9205-1.8193-.6003-.5391-1.4141-.8086-2.4413-.8086h-4.9228v5.175h4.6626c1.174 0 2.0678-.2426 2.6815-.7277.627-.4987.9405-1.1051.9405-1.8194z"/><path d="m59.793 31.0095h-10.0055l-1.0005-3.9015h-9.6654l-1.0005 3.9015h-10.0056l7.5042-21.18512 3.1617-8.81364h10.3457l7.5042 21.16486zm-12.9271-10.1074-2.9016-9.784-2.9216 9.784z"/><path d="m87.9286 31.0095h-26.8348v-7.1763l14.568-15.66643h-13.9077v-7.15603h25.5141v7.15603l-14.2078 15.66643h14.8682z"/><path d="m101.836 31.0095h-10.0053v-29.99876h10.0053z"/><path d="m131.253 31.0095h-23.253v-29.99876h9.665v22.82246h13.588z"/><path d="m144.82 31.0095h-10.006v-29.99876h10.006z"/><path d="m181 16.374c0 2.0215-.327 3.9553-.981 5.8016-.653 1.8463-1.647 3.5107-2.981 4.9931-1.321 1.4824-2.982 2.6616-4.983 3.5376-2.001.8625-4.296 1.2937-6.884 1.2937s-4.902-.4312-6.944-1.2937c-2.041-.8625-3.742-2.035-5.102-3.5174-1.361-1.4959-2.388-3.1872-3.082-5.0739-.694-1.9002-1.041-3.8543-1.041-5.8623s.334-3.9554 1.001-5.8421c.68-1.8867 1.694-3.60496 3.042-5.15476 1.36-1.56327 3.035-2.80985 5.022-3.73973 1.054-.48516 2.135-.85576 3.242-1.111814 1.121-.269531 2.301-.404296 3.542-.404296 2.521 0 4.789.444725 6.804 1.33418 2.028.88945 3.729 2.09559 5.103 3.61844 1.374 1.50937 2.414 3.21415 3.121 5.11438.361.9837.634 1.9743.821 2.9715.2.9838.3 1.9743.3 2.9716zm-10.326-.7075c0-1.752-.267-3.2142-.8-4.3867-.534-1.1724-1.227-2.03491-2.081-2.58744-.841-.56602-1.715-.84902-2.622-.84902-1.094 0-2.074.29648-2.941.88945-.868.59296-1.561 1.50941-2.082 2.74921-.506 1.2264-.76 2.7357-.76 4.5281 0 2.7088.52 4.8044 1.561 6.2868 1.04 1.4689 2.448 2.2034 4.222 2.2034 1.761 0 3.115-.7681 4.062-2.3045.961-1.5498 1.441-3.7262 1.441-6.5293z"/></g></svg>